{
  "accessors": [
    {
      "bufferView": 2,
      "componentType": 5126,
      "count": 6216,
      "max": [
        0.5469189882278442,
        0.10636500269174576,
        1.0
      ],
      "min": [
        0.36922699213027954,
        -0.3755339980125427,
        -0.880433976650238
      ],
      "type": "VEC3"
    },
    {
      "bufferView": 2,
      "byteOffset": 74592,
      "componentType": 5126,
      "count": 6216,
      "max": [
        1.0,
        1.0,
        1.0
      ],
      "min": [
        -1.0,
        -1.0,
        -1.0
      ],
      "type": "VEC3"
    },
    {
      "bufferView": 3,
      "componentType": 5126,
      "count": 6216,
      "max": [
        1.0,
        1.0,
        1.0,
        1.0
      ],
      "min": [
        -1.0,
        -1.0,
        -1.0,
        1.0
      ],
      "type": "VEC4"
    },
    {
      "bufferView": 1,
      "componentType": 5126,
      "count": 6216,
      "max": [
        0.9977610111236572,
        0.9999499917030334
      ],
      "min": [
        5.006929859519005e-05,
        5.006929859519005e-05
      ],
      "type": "VEC2"
    },
    {
      "bufferView": 0,
      "componentType": 5125,
      "count": 19845,
      "type": "SCALAR"
    },
    {
      "bufferView": 2,
      "byteOffset": 149184,
      "componentType": 5126,
      "count": 4526,
      "max": [
        0.3837069869041443,
        0.40287700295448303,
        0.4019879996776581
      ],
      "min": [
        -0.43775999546051025,
        -0.372622013092041,
        -0.3857460021972656
      ],
      "type": "VEC3"
    },
    {
      "bufferView": 2,
      "byteOffset": 203496,
      "componentType": 5126,
      "count": 4526,
      "max": [
        1.0,
        1.0,
        1.0
      ],
      "min": [
        -1.0,
        -1.0,
        -1.0
      ],
      "type": "VEC3"
    },
    {
      "bufferView": 3,
      "byteOffset": 99456,
      "componentType": 5126,
      "count": 4526,
      "max": [
        1.0,
        1.0,
        1.0,
        1.0
      ],
      "min": [
        -1.0,
        -1.0,
        -1.0,
        -1.0
      ],
      "type": "VEC4"
    },
    {
      "bufferView": 1,
      "byteOffset": 49728,
      "componentType": 5126,
      "count": 4526,
      "max": [
        0.9999009966850281,
        0.9771090149879456
      ],
      "min": [
        9.883400343824178e-05,
        9.883400343824178e-05
      ],
      "type": "VEC2"
    },
    {
      "bufferView": 0,
      "byteOffset": 79380,
      "componentType": 5125,
      "count": 13782,
      "type": "SCALAR"
    },
    {
      "bufferView": 2,
      "byteOffset": 257808,
      "componentType": 5126,
      "count": 11281,
      "max": [
        -0.1341709941625595,
        0.11119599640369415,
        -0.36685600876808167
      ],
      "min": [
        -0.3800100088119507,
        -0.2567189931869507,
        -0.44736000895500183
      ],
      "type": "VEC3"
    },
    {
      "bufferView": 2,
      "byteOffset": 393180,
      "componentType": 5126,
      "count": 11281,
      "max": [
        1.0,
        1.0,
        1.0
      ],
      "min": [
        -1.0,
        -1.0,
        -1.0
      ],
      "type": "VEC3"
    },
    {
      "bufferView": 3,
      "byteOffset": 171872,
      "componentType": 5126,
      "count": 11281,
      "max": [
        1.0,
        1.0,
        1.0,
        1.0
      ],
      "min": [
        -1.0,
        -1.0,
        -1.0,
        1.0
      ],
      "type": "VEC4"
    },
    {
      "bufferView": 1,
      "byteOffset": 85936,
      "componentType": 5126,
      "count": 11281,
      "max": [
        0.9790670275688171,
        0.9867979884147644
      ],
      "min": [
        0.014384199865162373,
        0.019095299765467644
      ],
      "type": "VEC2"
    },
    {
      "bufferView": 0,
      "byteOffset": 134508,
      "componentType": 5125,
      "count": 22848,
      "type": "SCALAR"
    },
    {
      "bufferView": 2,
      "byteOffset": 528552,
      "componentType": 5126,
      "count": 486,
      "max": [
        0.9983969926834106,
        -0.369361013174057,
        0.9967939853668213
      ],
      "min": [
        -0.9983969926834106,
        -0.400162011384964,
        -1.0
      ],
      "type": "VEC3"
    },
    {
      "bufferView": 2,
      "byteOffset": 534384,
      "componentType": 5126,
      "count": 486,
      "max": [
        1.0,
        1.0,
        1.0
      ],
      "min": [
        -1.0,
        -1.6292099758175027e-07,
        -1.0
      ],
      "type": "VEC3"
    },
    {
      "bufferView": 3,
      "byteOffset": 352368,
      "componentType": 5126,
      "count": 486,
      "max": [
        1.0,
        0.9999970197677612,
        0.48166900873184204,
        1.0
      ],
      "min": [
        0.0,
        -0.9999939799308777,
        -0.4810220003128052,
        1.0
      ],
      "type": "VEC4"
    },
    {
      "bufferView": 1,
      "byteOffset": 176184,
      "componentType": 5126,
      "count": 486,
      "max": [
        0.9998199939727783,
        0.9998999834060669
      ],
      "min": [
        9.997600136557594e-05,
        9.997600136557594e-05
      ],
      "type": "VEC2"
    },
    {
      "bufferView": 0,
      "byteOffset": 225900,
      "componentType": 5125,
      "count": 2016,
      "type": "SCALAR"
    },
    {
      "bufferView": 2,
      "byteOffset": 540216,
      "componentType": 5126,
      "count": 3131,
      "max": [
        -0.24142499268054962,
        0.2807370126247406,
        0.29633399844169617
      ],
      "min": [
        -0.369161993265152,
        0.21921199560165405,
        -0.25279301404953003
      ],
      "type": "VEC3"
    },
    {
      "bufferView": 2,
      "byteOffset": 577788,
      "componentType": 5126,
      "count": 3131,
      "max": [
        1.0,
        1.0,
        1.0
      ],
      "min": [
        -1.0,
        -1.0,
        -1.0
      ],
      "type": "VEC3"
    },
    {
      "bufferView": 3,
      "byteOffset": 360144,
      "componentType": 5126,
      "count": 3131,
      "max": [
        1.0,
        1.0,
        0.9160699844360352,
        1.0
      ],
      "min": [
        -0.9999809861183167,
        -1.0,
        -0.9853900074958801,
        1.0
      ],
      "type": "VEC4"
    },
    {
      "bufferView": 1,
      "byteOffset": 180072,
      "componentType": 5126,
      "count": 3131,
      "max": [
        0.9871019721031189,
        0.9883099794387817
      ],
      "min": [
        0.011690500192344189,
        0.011690500192344189
      ],
      "type": "VEC2"
    },
    {
      "bufferView": 0,
      "byteOffset": 233964,
      "componentType": 5125,
      "count": 15288,
      "type": "SCALAR"
    },
    {
      "bufferView": 2,
      "byteOffset": 615360,
      "componentType": 5126,
      "count": 99,
      "max": [
        0.5542870163917542,
        -0.21723000705242157,
        0.41332900524139404
      ],
      "min": [
        0.5058760046958923,
        -0.36957600712776184,
        0.4118019938468933
      ],
      "type": "VEC3"
    },
    {
      "bufferView": 2,
      "byteOffset": 616548,
      "componentType": 5126,
      "count": 99,
      "max": [
        1.0,
        0.999970018863678,
        1.0
      ],
      "min": [
        -1.0,
        -0.999970018863678,
        -1.0
      ],
      "type": "VEC3"
    },
    {
      "bufferView": 3,
      "byteOffset": 410240,
      "componentType": 5126,
      "count": 99,
      "max": [
        1.0,
        0.4805870056152344,
        0.9993469715118408,
        1.0
      ],
      "min": [
        -1.0,
        -0.4704490005970001,
        -0.9993469715118408,
        1.0
      ],
      "type": "VEC4"
    },
    {
      "bufferView": 1,
      "byteOffset": 205120,
      "componentType": 5126,
      "count": 99,
      "max": [
        0.6526370048522949,
        0.9990770220756531
      ],
      "min": [
        0.01199680007994175,
        0.0009232729789800942
      ],
      "type": "VEC2"
    },
    {
      "bufferView": 0,
      "byteOffset": 295116,
      "componentType": 5125,
      "count": 252,
      "type": "SCALAR"
    }
  ],
  "asset": {
    "extras": {
      "author": "wand3rer (https://sketchfab.com/wand3rer)",
      "license": "CC-BY-4.0 (http://creativecommons.org/licenses/by/4.0/)",
      "source": "https://sketchfab.com/3d-models/old-street-hotel-building-at-night-5412e51497ba4c328a56544d77e71eb9",
      "title": "Old Street Hotel Building At Night"
    },
    "generator": "Sketchfab-12.67.0",
    "version": "2.0"
  },
  "bufferViews": [
    {
      "buffer": 0,
      "byteLength": 296124,
      "name": "floatBufferViews",
      "target": 34963
    },
    {
      "buffer": 0,
      "byteLength": 205912,
      "byteOffset": 296124,
      "byteStride": 8,
      "name": "floatBufferViews",
      "target": 34962
    },
    {
      "buffer": 0,
      "byteLength": 617736,
      "byteOffset": 502036,
      "byteStride": 12,
      "name": "floatBufferViews",
      "target": 34962
    },
    {
      "buffer": 0,
      "byteLength": 411824,
      "byteOffset": 1119772,
      "byteStride": 16,
      "name": "floatBufferViews",
      "target": 34962
    }
  ],
  "buffers": [
    {
      "byteLength": 1531596,
      "uri": "scene.bin"
    }
  ],
  "images": [
    {
      "uri": "textures/DefaultMaterial_baseColor.jpeg"
    },
    {
      "uri": "textures/DefaultMaterial_metallicRoughness.png"
    },
    {
      "uri": "textures/DefaultMaterial_normal.png"
    },
    {
      "uri": "textures/material_baseColor.jpeg"
    },
    {
      "uri": "textures/material_metallicRoughness.png"
    },
    {
      "uri": "textures/material_normal.png"
    },
    {
      "uri": "textures/Street_baseColor.jpeg"
    },
    {
      "uri": "textures/Street_metallicRoughness.png"
    },
    {
      "uri": "textures/Street_normal.png"
    },
    {
      "uri": "textures/Stairs_baseColor.jpeg"
    },
    {
      "uri": "textures/Stairs_metallicRoughness.png"
    },
    {
      "uri": "textures/Stairs_normal.png"
    },
    {
      "uri": "textures/Building_baseColor.jpeg"
    },
    {
      "uri": "textures/Building_metallicRoughness.png"
    },
    {
      "uri": "textures/Building_emissive.jpeg"
    },
    {
      "uri": "textures/Building_normal.png"
    },
    {
      "uri": "textures/Pole_baseColor.jpeg"
    },
    {
      "uri": "textures/Pole_metallicRoughness.png"
    },
    {
      "uri": "textures/Pole_emissive.jpeg"
    },
    {
      "uri": "textures/Pole_normal.png"
    }
  ],
  "materials": [
    {
      "doubleSided": true,
      "name": "DefaultMaterial",
      "normalTexture": {
        "index": 2
      },
      "occlusionTexture": {
        "index": 1
      },
      "pbrMetallicRoughness": {
        "baseColorTexture": {
          "index": 0
        },
        "metallicRoughnessTexture": {
          "index": 1
        }
      }
    },
    {
      "doubleSided": true,
      "name": "material",
      "normalTexture": {
        "index": 5
      },
      "occlusionTexture": {
        "index": 4
      },
      "pbrMetallicRoughness": {
        "baseColorTexture": {
          "index": 3
        },
        "metallicRoughnessTexture": {
          "index": 4
        }
      }
    },
    {
      "doubleSided": true,
      "name": "Street",
      "normalTexture": {
        "index": 8
      },
      "occlusionTexture": {
        "index": 7
      },
      "pbrMetallicRoughness": {
        "baseColorTexture": {
          "index": 6
        },
        "metallicRoughnessTexture": {
          "index": 7
        }
      }
    },
    {
      "doubleSided": true,
      "name": "Stairs",
      "normalTexture": {
        "index": 11
      },
      "occlusionTexture": {
        "index": 10
      },
      "pbrMetallicRoughness": {
        "baseColorTexture": {
          "index": 9
        },
        "metallicRoughnessTexture": {
          "index": 10
        }
      }
    },
    {
      "doubleSided": true,
      "emissiveFactor": [
        1.0,
        1.0,
        1.0
      ],
      "emissiveTexture": {
        "index": 14
      },
      "name": "Building",
      "normalTexture": {
        "index": 15
      },
      "occlusionTexture": {
        "index": 13
      },
      "pbrMetallicRoughness": {
        "baseColorTexture": {
          "index": 12
        },
        "metallicFactor": 0.0,
        "metallicRoughnessTexture": {
          "index": 13
        }
      }
    },
    {
      "doubleSided": true,
      "emissiveFactor": [
        1.0,
        1.0,
        1.0
      ],
      "emissiveTexture": {
        "index": 18
      },
      "name": "Pole",
      "normalTexture": {
        "index": 19
      },
      "occlusionTexture": {
        "index": 17
      },
      "pbrMetallicRoughness": {
        "baseColorTexture": {
          "index": 16
        },
        "metallicFactor": 0.0,
        "metallicRoughnessTexture": {
          "index": 17
        }
      }
    }
  ],
  "meshes": [
    {
      "name": "defaultMaterial",
      "primitives": [
        {
          "attributes": {
            "NORMAL": 1,
            "POSITION": 0,
            "TANGENT": 2,
            "TEXCOORD_0": 3
          },
          "indices": 4,
          "material": 5,
          "mode": 4
        }
      ]
    },
    {
      "name": "defaultMaterial",
      "primitives": [
        {
          "attributes": {
            "NORMAL": 6,
            "POSITION": 5,
            "TANGENT": 7,
            "TEXCOORD_0": 8
          },
          "indices": 9,
          "material": 4,
          "mode": 4
        }
      ]
    },
    {
      "name": "defaultMaterial",
      "primitives": [
        {
          "attributes": {
            "NORMAL": 11,
            "POSITION": 10,
            "TANGENT": 12,
            "TEXCOORD_0": 13
          },
          "indices": 14,
          "material": 3,
          "mode": 4
        }
      ]
    },
    {
      "name": "defaultMaterial",
      "primitives": [
        {
          "attributes": {
            "NORMAL": 16,
            "POSITION": 15,
            "TANGENT": 17,
            "TEXCOORD_0": 18
          },
          "indices": 19,
          "material": 2,
          "mode": 4
        }
      ]
    },
    {
      "name": "defaultMaterial",
      "primitives": [
        {
          "attributes": {
            "NORMAL": 21,
            "POSITION": 20,
            "TANGENT": 22,
            "TEXCOORD_0": 23
          },
          "indices": 24,
          "material": 1,
          "mode": 4
        }
      ]
    },
    {
      "name": "defaultMaterial",
      "primitives": [
        {
          "attributes": {
            "NORMAL": 26,
            "POSITION": 25,
            "TANGENT": 27,
            "TEXCOORD_0": 28
          },
          "indices": 29,
          "material": 0,
          "mode": 4
        }
      ]
    }
  ],
  "nodes": [
    {
      "children": [
        1
      ],
      "matrix": [
        1.0,
        0.0,
        0.0,
        0.0,
        0.0,
        2.220446049250313e-16,
        -1.0,
        0.0,
        0.0,
        1.0,
        2.220446049250313e-16,
        0.0,
        0.0,
        0.0,
        0.0,
        1.0
      ],
      "name": "Sketchfab_model"
    },
    {
      "children": [
        2,
        4,
        6,
        8,
        10,
        12
      ],
      "matrix": [
        1.0,
        0.0,
        0.0,
        0.0,
        0.0,
        -4.371139006309477e-08,
        0.999999999999999,
        0.0,
        0.0,
        -0.999999999999999,
        -4.371139006309477e-08,
        0.0,
        0.0,
        0.0,
        0.0,
        1.0
      ],
      "name": "Collada visual scene group"
    },
    {
      "children": [
        3
      ],
      "name": "LightPole"
    },
    {
      "mesh": 0,
      "name": "defaultMaterial"
    },
    {
      "children": [
        5
      ],
      "name": "Building"
    },
    {
      "mesh": 1,
      "name": "defaultMaterial"
    },
    {
      "children": [
        7
      ],
      "name": "Stairs"
    },
    {
      "mesh": 2,
      "name": "defaultMaterial"
    },
    {
      "children": [
        9
      ],
      "name": "Street"
    },
    {
      "mesh": 3,
      "name": "defaultMaterial"
    },
    {
      "children": [
        11
      ],
      "name": "AC"
    },
    {
      "mesh": 4,
      "name": "defaultMaterial"
    },
    {
      "children": [
        13
      ],
      "name": "Pole_Stop"
    },
    {
      "mesh": 5,
      "name": "defaultMaterial"
    }
  ],
  "samplers": [
    {
      "magFilter": 9729,
      "minFilter": 9987,
      "wrapS": 10497,
      "wrapT": 10497
    }
  ],
  "scene": 0,
  "scenes": [
    {
      "name": "Sketchfab_Scene",
      "nodes": [
        0
      ]
    }
  ],
  "textures": [
    {
      "sampler": 0,
      "source": 0
    },
    {
      "sampler": 0,
      "source": 1
    },
    {
      "sampler": 0,
      "source": 2
    },
    {
      "sampler": 0,
      "source": 3
    },
    {
      "sampler": 0,
      "source": 4
    },
    {
      "sampler": 0,
      "source": 5
    },
    {
      "sampler": 0,
      "source": 6
    },
    {
      "sampler": 0,
      "source": 7
    },
    {
      "sampler": 0,
      "source": 8
    },
    {
      "sampler": 0,
      "source": 9
    },
    {
      "sampler": 0,
      "source": 10
    },
    {
      "sampler": 0,
      "source": 11
    },
    {
      "sampler": 0,
      "source": 12
    },
    {
      "sampler": 0,
      "source": 13
    },
    {
      "sampler": 0,
      "source": 14
    },
    {
      "sampler": 0,
      "source": 15
    },
    {
      "sampler": 0,
      "source": 16
    },
    {
      "sampler": 0,
      "source": 17
    },
    {
      "sampler": 0,
      "source": 18
    },
    {
      "sampler": 0,
      "source": 19
    }
  ]
}
